<svg width="22" height="24" viewBox="0 0 22 24" fill="none" xmlns="http://www.w3.org/2000/svg">
<path d="M18.125 3.75H14.1667C14.1667 2.2332 12.7466 1 11 1C9.25339 1 7.83333 2.2332 7.83333 3.75H3.875C2.5638 3.75 1.5 4.67383 1.5 5.8125V20.9375C1.5 22.0762 2.5638 23 3.875 23H18.125C19.4362 23 20.5 22.0762 20.5 20.9375V5.8125C20.5 4.67383 19.4362 3.75 18.125 3.75ZM6.25 19.2188C5.59193 19.2188 5.0625 18.759 5.0625 18.1875C5.0625 17.616 5.59193 17.1562 6.25 17.1562C6.90807 17.1562 7.4375 17.616 7.4375 18.1875C7.4375 18.759 6.90807 19.2188 6.25 19.2188ZM6.25 15.0938C5.59193 15.0938 5.0625 14.634 5.0625 14.0625C5.0625 13.491 5.59193 13.0312 6.25 13.0312C6.90807 13.0312 7.4375 13.491 7.4375 14.0625C7.4375 14.634 6.90807 15.0938 6.25 15.0938ZM6.25 10.9688C5.59193 10.9688 5.0625 10.509 5.0625 9.9375C5.0625 9.36602 5.59193 8.90625 6.25 8.90625C6.90807 8.90625 7.4375 9.36602 7.4375 9.9375C7.4375 10.509 6.90807 10.9688 6.25 10.9688ZM11 2.71875C11.6581 2.71875 12.1875 3.17852 12.1875 3.75C12.1875 4.32148 11.6581 4.78125 11 4.78125C10.3419 4.78125 9.8125 4.32148 9.8125 3.75C9.8125 3.17852 10.3419 2.71875 11 2.71875ZM17.3333 18.5312C17.3333 18.7203 17.1552 18.875 16.9375 18.875H9.8125C9.59479 18.875 9.41667 18.7203 9.41667 18.5312V17.8438C9.41667 17.6547 9.59479 17.5 9.8125 17.5H16.9375C17.1552 17.5 17.3333 17.6547 17.3333 17.8438V18.5312ZM17.3333 14.4062C17.3333 14.5953 17.1552 14.75 16.9375 14.75H9.8125C9.59479 14.75 9.41667 14.5953 9.41667 14.4062V13.7188C9.41667 13.5297 9.59479 13.375 9.8125 13.375H16.9375C17.1552 13.375 17.3333 13.5297 17.3333 13.7188V14.4062ZM17.3333 10.2812C17.3333 10.4703 17.1552 10.625 16.9375 10.625H9.8125C9.59479 10.625 9.41667 10.4703 9.41667 10.2812V9.59375C9.41667 9.40469 9.59479 9.25 9.8125 9.25H16.9375C17.1552 9.25 17.3333 9.40469 17.3333 9.59375V10.2812Z" fill="#797777"/>
</svg>
