<svg width="24" height="24" viewBox="0 0 24 24" fill="none" xmlns="http://www.w3.org/2000/svg">
<path d="M8.20498 4.57156C8.38532 4.48749 8.59168 4.4785 8.77866 4.54657C8.96563 4.61465 9.1179 4.75421 9.20198 4.93456C9.28605 5.11491 9.29504 5.32126 9.22696 5.50824C9.15889 5.69521 9.01932 5.84748 8.83898 5.93156C7.54229 6.53578 6.44515 7.49779 5.67665 8.7044C4.90815 9.911 4.50026 11.312 4.50098 12.7426C4.50098 16.8906 7.85898 20.2526 12 20.2526C16.141 20.2526 19.499 16.8906 19.499 12.7426C19.4997 11.3148 19.0934 9.91645 18.3278 8.71138C17.5621 7.5063 16.4688 6.54445 15.176 5.93856C15.0863 5.89707 15.0056 5.83827 14.9387 5.76552C14.8718 5.69277 14.82 5.60752 14.7861 5.51466C14.7523 5.4218 14.7371 5.32317 14.7415 5.22443C14.7459 5.12569 14.7698 5.0288 14.8118 4.93932C14.8537 4.84983 14.913 4.76953 14.9861 4.70303C15.0592 4.63652 15.1447 4.58512 15.2378 4.55178C15.3308 4.51844 15.4295 4.50382 15.5283 4.50876C15.627 4.5137 15.7237 4.5381 15.813 4.58056C17.3638 5.30745 18.6752 6.4613 19.5937 7.90687C20.5122 9.35245 20.9997 11.0299 20.999 12.7426C20.999 17.7186 16.97 21.7526 11.999 21.7526C7.02998 21.7516 3.00098 17.7176 3.00098 12.7416C3.00034 11.0256 3.48976 9.34506 4.41166 7.89773C5.33355 6.4504 6.64959 5.29643 8.20498 4.57156V4.57156ZM12.001 2.24756C12.1822 2.24757 12.3573 2.3132 12.4939 2.43233C12.6305 2.55145 12.7193 2.716 12.744 2.89556L12.751 2.99756V10.4976C12.7509 10.6876 12.6787 10.8705 12.549 11.0093C12.4193 11.1482 12.2417 11.2326 12.0521 11.2456C11.8625 11.2585 11.6751 11.199 11.5277 11.0791C11.3803 10.9592 11.2839 10.7878 11.258 10.5996L11.251 10.4976V2.99756C11.251 2.79865 11.33 2.60788 11.4706 2.46723C11.6113 2.32658 11.8021 2.24756 12.001 2.24756V2.24756Z" fill="#797777"/>
</svg>
